<svg id="Layer_1" data-name="Layer 1" xmlns="http://www.w3.org/2000/svg" xmlns:xlink="http://www.w3.org/1999/xlink" viewBox="0 0 216 234.96"><defs><style>.cls-1,.cls-2{fill:none;stroke:#25f4bd;stroke-miterlimit:10;}.cls-1{stroke-width:2px;}</style></defs><title>map</title><image width="900" height="979" transform="scale(0.24)" xlink:href="map.png"/><path class="cls-1" d="M158,25.75s-3.75,2-3.75,4.25-.25,5.5,1.88,8.25,3.38,7.5,1.88,10.25-4.75,6.25-5,12,1,8-1.5,10.75-1.75,3.25-6,5"/><path class="cls-2" d="M143.25,76.25s-7,4.25-9.25,4.5-4.5-3-12.25,0-13.25-.5-15.25,6-2.75,10.25-4.75,14.5S99.75,108,95,111"/><path class="cls-2" d="M92.75,112.25a17.24,17.24,0,0,0-6.75,3c-4.45,3.25-6.2.44-9.5,2.23-4.65,2.52-7,7-6,10.52s.75,7.5,1.5,12a46.24,46.24,0,0,1,.5,14.5c-.75,5.25,2.7,5.75-2.15,10.25"/><path class="cls-2" d="M69,166.5a56.51,56.51,0,0,1-4,5.25c-2,2.25-7.75,7.5-9.25,8.25s8.75,9.25,9.75,12.5a19.83,19.83,0,0,1,1,5.25"/></svg>